<?xml version="1.0" encoding="utf-8"?>
<!-- Generator: Adobe Illustrator 23.0.0, SVG Export Plug-In . SVG Version: 6.00 Build 0)  -->
<svg version="1.1" id="Layer_1" xmlns="http://www.w3.org/2000/svg" xmlns:xlink="http://www.w3.org/1999/xlink" x="0px" y="0px"
	 viewBox="0 0 1920 1080" style="enable-background:new 0 0 1920 1080;" xml:space="preserve">
<style type="text/css">
	.st0{fill:#1B1464;}
</style>
<path class="st0" d="M1000.62,253.37c-57.14-19.02-128.22,12.28-140.58,17.99c-12.31,5.69-45.26,21.34-58.36,48.51
	c-0.08,0.17-0.2,0.42-0.35,0.74c-6.12,12.97-7.36,32.32,3.39,42.76c13.9,13.5,37.69,2.12,59.18,16.63
	c11.07,7.47,19.52,20.46,15.73,31.95c-6.75,20.47-50.3,27.27-47.32,32.51c3.27,5.73,35.17,3.94,60.37-0.54
	c58.96-10.49,117.73-42.19,144.05-84.8c8.27-13.39,25.97-42.04,8.12-71.51C1041.11,281.42,1030.05,263.17,1000.62,253.37z"/>
<path class="st0" d="M846.73,657.18c43.99,25.86,109.12,4.37,120.49,0.38c11.33-3.98,41.73-15.06,57.79-39.91
	c1.93-2.99,20.54-31.78,5.71-42.84c-19.72-14.72-78.24,17.1-92.57,4.82c-11.17-9.56,9.2-41.8,39.38-61.81
	c23.54-15.6,47.15-19.86,45.57-25.7c-1.63-6.01-28.55-8.33-50.39-7.17c-51.09,2.71-106.04,26.16-136.04,64.39
	c-9.43,12.01-29.59,37.72-20.3,68.76C818.33,624.63,824.08,643.86,846.73,657.18z"/>
<path class="st0" d="M846.73,657.18c43.99,25.86,109.12,4.37,120.49,0.38c11.33-3.98,41.73-15.06,57.79-39.91
	c1.93-2.99,20.54-31.78,5.71-42.84c-19.72-14.72-78.24,17.1-92.57,4.82c-11.17-9.56,9.2-41.8,39.38-61.81
	c23.54-15.6,47.15-19.86,45.57-25.7c-1.63-6.01-28.55-8.33-50.39-7.17c-51.09,2.71-106.04,26.16-136.04,64.39
	c-9.43,12.01-29.59,37.72-20.3,68.76C818.33,624.63,824.08,643.86,846.73,657.18z"/>
<path class="st0" d="M749.16,843.7c8.93,10.01,26.16,18.05,45.05,15.65c19.57-2.48,37.44-15.73,38.29-29
	c0.81-12.68-14.57-15.02-15.04-29.45c-0.44-13.67,13.2-16.3,17.5-36.5c1.47-6.93,3.87-18.16-3.74-25.29
	c-9.04-8.47-26.78-6.1-33.39-5.22c-25.02,3.34-51.02,19.49-59.44,42.07c-4.6,12.35-2.55,22.88,1.33,42.73
	C742.11,831,743.43,837.28,749.16,843.7z"/>
<path class="st0" d="M383.2,365.5c-4.86,23.04,28.34,36.23,34.3,38.45c5.94,2.21,22.15,8,43.55,4.41
	c2.57-0.43,27.37-4.59,30.6-13.18c4.29-11.42-33.99-18.89-29.81-27.75c3.26-6.9,30.89-11.71,53.07-9.11
	c17.3,2.02,26.95,8.04,30.44,5.49c3.6-2.62-2.56-12-9.6-18.53c-16.49-15.3-48.09-24.57-82.54-20.72
	c-10.83,1.21-33.98,3.79-52.3,17.61C397.05,345.07,385.7,353.63,383.2,365.5z"/>
<path class="st0" d="M1370.08,718.05c-5.74-7.78-15.34-1.86-17.02-0.76c-1.68,1.1-6.18,4.17-8.91,11.33
	c-0.33,0.86-3.49,9.16-1.6,12.46c2.51,4.4,11.37-4.57,13.17-0.91c1.4,2.85-2.07,12.14-6.71,17.81c-3.61,4.42-7.03,5.54-6.92,7.25
	c0.12,1.76,3.88,2.58,6.99,2.36c7.27-0.52,15.47-7.06,20.42-18.05c1.55-3.45,4.88-10.84,4.14-19.94
	C1373.5,727.69,1373.04,722.05,1370.08,718.05z"/>
<path class="st0" d="M570.87,522.58c0.25,6.32,9.75,9.96,11.45,10.58c1.69,0.61,6.28,2.21,11.62,1.24c0.64-0.12,6.82-1.24,7.09-3.6
	c0.37-3.13-10.08-5.21-9.57-7.64c0.39-1.89,7.27-3.19,13.2-2.47c4.63,0.57,7.54,2.22,8.28,1.53c0.76-0.72-1.45-3.29-3.71-5.09
	c-5.29-4.21-14.12-6.77-22.83-5.74c-2.74,0.32-8.59,1.02-12.44,4.8C573.13,516.98,570.74,519.32,570.87,522.58z"/>
<path class="st0" d="M1569.24,455.32c19.86,18.49,55.16,8.65,61.35,6.77c6.17-1.86,22.75-7.11,33.38-21.71
	c0.07-0.09,0.17-0.23,0.29-0.4c5.02-6.99,9.26-18.39,6.85-25.97c-3.12-9.8-15.11-5.97-21.16-17.32c-3.12-5.85-4.09-14.66-0.32-21.05
	c6.72-11.39,25.97-10.03,25.75-13.53c-0.24-3.83-13.72-6.74-24.96-7.2c-26.3-1.08-56.61,10.54-75.66,32.71
	c-5.99,6.97-18.8,21.88-17.13,41.71C1557.98,433.51,1559.01,445.79,1569.24,455.32z"/>
<path class="st0" d="M1117.11,889.68c-5.33-8.86-19.73-5.87-22.27-5.28c-2.53,0.59-9.36,2.27-15.04,8.28
	c-0.68,0.72-7.26,7.69-5.71,11.31c2.05,4.82,16.34-1.25,17.66,2.68c1.03,3.06-6.25,10.87-14.01,14.97
	c-6.05,3.2-10.89,3.33-11.23,4.97c-0.35,1.69,4.38,3.47,8.55,4.1c9.75,1.46,22.47-2.5,32.18-11.52c3.05-2.83,9.58-8.9,11.23-17.67
	C1118.83,899.68,1119.85,894.24,1117.11,889.68z"/>
<path class="st0" d="M1390.57,472.44c-10.27-20.18-40.62-12.45-45.98-10.94c-5.34,1.5-19.78,5.77-32.22,19.99
	c-1.5,1.71-15.91,18.18-13.05,26.46c3.81,11.02,34.26-3.81,36.63,5.19c1.85,7.01-14.12,25.49-30.73,35.41
	c-12.96,7.73-23.07,8.31-23.94,12.13c-0.9,3.93,8.81,7.78,17.45,8.99c20.23,2.83,47.19-7.05,68.36-28.45
	c6.65-6.73,20.88-21.11,25.2-41.48C1393.18,495.45,1395.86,482.83,1390.57,472.44z"/>
<path class="st0" d="M1202.65,318.01c-4.94-11.17-18.63-22.39-37.8-24.43c-19.86-2.11-42.04,6.02-47.77,17.99
	c-5.48,11.44,8.55,17.02,3.66,30.35c-4.63,12.62-18.8,11.98-30.43,29.51c-3.99,6.01-10.46,15.77-5.73,24
	c5.61,9.78,23.66,11.58,30.37,12.26c25.44,2.54,56.58-6.42,73.08-25.22c9.02-10.28,10.93-20.38,14.52-39.44
	C1204.77,331.22,1205.82,325.17,1202.65,318.01z"/>
<path class="st0" d="M1379.9,837.99c13.23-20.02-14.02-39.53-18.97-42.9c-4.93-3.36-18.47-12.29-40.51-13.79
	c-2.65-0.18-28.18-1.92-34.48,5.22c-8.38,9.5,25.91,24.92,18.58,32.1c-5.7,5.59-34.22,3.8-54.72-3.54
	c-15.99-5.73-23.1-13.4-27.42-11.85c-4.45,1.6-1.96,11.56,2.44,19.13c10.29,17.71,37.45,33.27,72.2,37.47
	c10.92,1.32,34.28,4.14,57.12-4.42C1358.94,853.6,1373.08,848.3,1379.9,837.99z"/>
<path class="st0" d="M1803.81,614.65c11.42-26.74-25.19-50.97-31.8-55.13c-6.59-4.15-24.62-15.19-51.16-16.15
	c-3.19-0.11-33.94-1.22-39.9,8.4c-7.92,12.79,36.19,31.34,29.02,41.04c-5.58,7.56-39.89,6.54-65.86-2.11
	c-20.26-6.74-30.37-16.43-35.17-14.21c-4.95,2.29,0.15,15.18,7.02,24.86c16.06,22.64,51.72,41.71,93.96,45.59
	c13.28,1.22,41.67,3.83,67-8.39C1782.24,635.98,1797.92,628.41,1803.81,614.65z"/>
<path class="st0" d="M611.27,249.87c2.68,8.41,14.16,5.14,16.19,4.51c2.03-0.63,7.52-2.43,12.81-8.38
	c0.64-0.71,6.76-7.61,6.16-11.06c-0.81-4.59-12.69,1.64-13.08-2.12c-0.3-2.92,6.5-10.66,13.08-14.81c5.13-3.24,8.85-3.5,9.37-5.09
	c0.54-1.64-2.8-3.24-5.89-3.73c-7.23-1.15-17.58,3-26.43,11.96c-2.78,2.81-8.73,8.84-11.38,17.34
	C611.54,240.27,609.89,245.54,611.27,249.87z"/>
<path class="st0" d="M1256.4,652.08c2.1-5.85-5.75-11.31-7.16-12.25c-1.41-0.94-5.26-3.43-10.78-3.74
	c-0.66-0.04-7.05-0.39-8.19,1.71c-1.51,2.79,7.83,7.03,6.44,9.14c-1.08,1.64-8.21,1.3-13.69-0.7c-4.27-1.56-6.47-3.73-7.44-3.25
	c-1,0.49,0.19,3.34,1.71,5.5c3.56,5.04,11.16,9.37,19.96,10.37c2.77,0.32,8.69,0.99,13.82-1.61
	C1252.14,656.7,1255.32,655.09,1256.4,652.08z"/>
<path class="st0" d="M515.5,429.08c0.28,6.29,10.83,9.91,12.72,10.52c1.88,0.61,6.98,2.2,12.91,1.23c0.71-0.12,7.58-1.24,7.88-3.58
	c0.41-3.12-11.2-5.18-10.64-7.59c0.44-1.88,8.08-3.18,14.67-2.46c5.15,0.56,8.38,2.21,9.2,1.52c0.85-0.71-1.61-3.28-4.13-5.06
	c-5.88-4.19-15.69-6.73-25.37-5.71c-3.04,0.32-9.54,1.01-13.83,4.78C518.01,423.51,515.36,425.84,515.5,429.08z"/>
<path class="st0" d="M1122.52,794.07c-5.93-8.81-21.92-5.83-24.75-5.25c-2.81,0.58-10.41,2.26-16.71,8.23
	c-0.76,0.72-8.07,7.64-6.35,11.24c2.28,4.79,18.16-1.24,19.63,2.66c1.14,3.04-6.94,10.81-15.57,14.89
	c-6.73,3.18-12.1,3.31-12.48,4.94c-0.39,1.68,4.87,3.45,9.5,4.07c10.84,1.45,24.98-2.49,35.77-11.46
	c3.39-2.82,10.65-8.85,12.49-17.57C1124.43,804.01,1125.57,798.61,1122.52,794.07z"/>
<path class="st0" d="M1277.37,557.78c2.33-5.81-6.39-11.25-7.96-12.18c-1.57-0.93-5.85-3.41-11.98-3.71
	c-0.74-0.04-7.84-0.39-9.11,1.7c-1.68,2.77,8.7,6.99,7.16,9.09c-1.2,1.63-9.13,1.29-15.21-0.69c-4.75-1.55-7.19-3.7-8.27-3.23
	c-1.12,0.48,0.21,3.32,1.9,5.47c3.96,5.01,12.4,9.31,22.19,10.31c3.08,0.31,9.65,0.98,15.36-1.6
	C1272.64,562.37,1276.17,560.77,1277.37,557.78z"/>
<path class="st0" d="M1065.52,441.29c0.06,1.43,2.5,2.26,2.93,2.4c0.43,0.14,1.61,0.5,2.98,0.28c0.16-0.03,1.75-0.28,1.82-0.82
	c0.09-0.71-2.58-1.18-2.45-1.73c0.1-0.43,1.86-0.72,3.38-0.56c1.19,0.13,1.93,0.5,2.12,0.35c0.2-0.16-0.37-0.75-0.95-1.16
	c-1.36-0.95-3.62-1.54-5.85-1.3c-0.7,0.07-2.2,0.23-3.19,1.09C1066.1,440.02,1065.48,440.55,1065.52,441.29z"/>
<path class="st0" d="M1205.49,524.55c-1.37-2.01-5.06-1.33-5.71-1.2c-0.65,0.13-2.4,0.51-3.85,1.88c-0.17,0.16-1.86,1.74-1.46,2.57
	c0.53,1.09,4.19-0.28,4.53,0.61c0.26,0.69-1.6,2.47-3.59,3.4c-1.55,0.73-2.79,0.76-2.88,1.13c-0.09,0.38,1.12,0.79,2.19,0.93
	c2.5,0.33,5.76-0.57,8.25-2.61c0.78-0.64,2.45-2.02,2.88-4.01C1205.93,526.82,1206.2,525.59,1205.49,524.55z"/>
<path class="st0" d="M1241.2,470.65c0.54-1.33-1.47-2.57-1.84-2.78c-0.36-0.21-1.35-0.78-2.76-0.85c-0.17-0.01-1.81-0.09-2.1,0.39
	c-0.39,0.63,2.01,1.59,1.65,2.07c-0.28,0.37-2.1,0.29-3.51-0.16c-1.09-0.35-1.66-0.85-1.91-0.74c-0.26,0.11,0.05,0.76,0.44,1.25
	c0.91,1.14,2.86,2.12,5.12,2.35c0.71,0.07,2.23,0.22,3.54-0.37C1240.11,471.69,1240.93,471.33,1241.2,470.65z"/>
<path class="st0" d="M274.17,548.2c-13.77,13.97-38.25,6.53-42.54,5.12c-4.28-1.41-15.77-5.37-23.15-16.4
	c-0.05-0.07-0.11-0.17-0.2-0.3c-3.48-5.28-6.42-13.89-4.75-19.61c2.16-7.4,10.48-4.51,14.67-13.08c2.16-4.42,2.84-11.07,0.22-15.9
	c-4.66-8.6-18.01-7.57-17.85-10.22c0.17-2.89,9.52-5.09,17.31-5.44c18.23-0.82,39.25,7.96,52.46,24.71
	c4.15,5.26,13.03,16.53,11.88,31.51C281.97,531.72,281.26,541,274.17,548.2z"/>
<path class="st0" d="M616.81,907.27c-6.76,1.11-15.58-1.89-22.32-8.7c-2.12-2.14-6.64-6.72-7.79-13.34"/>
<path class="st0" d="M398.05,561.13c7.12-15.25,28.17-9.4,31.88-8.26c3.71,1.13,13.71,4.36,22.34,15.1
	c1.04,1.29,11.03,13.73,9.05,19.99c-2.64,8.32-23.75-2.88-25.4,3.92c-1.28,5.29,9.79,19.26,21.31,26.74c8.99,5.84,16,6.28,16.6,9.16
	c0.62,2.97-6.11,5.88-12.1,6.79c-14.03,2.14-32.72-5.32-47.4-21.49c-4.61-5.08-14.48-15.95-17.48-31.33
	C396.24,578.51,394.38,568.98,398.05,561.13z"/>
<path class="st0" d="M405.45,837.24c-9.17-15.12,9.72-29.86,13.15-32.41c3.42-2.53,12.81-9.28,28.09-10.42
	c1.84-0.14,19.54-1.45,23.91,3.94c5.81,7.18-17.96,18.82-12.88,24.24c3.96,4.22,23.73,2.87,37.94-2.67
	c11.09-4.33,16.02-10.12,19.01-8.95c3.09,1.21,1.36,8.73-1.69,14.45c-7.14,13.37-25.97,25.13-50.06,28.3
	c-7.57,1-23.77,3.13-39.61-3.34C419.98,849.03,410.17,845.03,405.45,837.24z"/>
<path class="st0" d="M111.52,668.54c-7.92-20.2,17.47-38.5,22.05-41.64c4.57-3.14,17.07-11.48,35.47-12.2
	c2.21-0.09,23.53-0.92,27.66,6.34c5.49,9.66-25.09,23.67-20.12,31c3.87,5.71,27.66,4.94,45.67-1.59
	c14.04-5.09,21.06-12.41,24.39-10.73c3.43,1.73-0.11,11.47-4.87,18.78c-11.14,17.1-35.86,31.51-65.15,34.44
	c-9.21,0.92-28.9,2.89-46.46-6.34C126.48,684.66,115.6,678.94,111.52,668.54z"/>
<path class="st0" d="M496.05,687.56c0.98-0.71,3.65-2.59,7.48-2.82c0.46-0.03,4.89-0.29,5.68,1.29"/>
<path class="st0" d="M591.51,826.23c-2.35-2.13-7.38-6.68-8.66-13.27c-0.27-1.38-1.06-5.46,1.06-8.89"/>
<path class="st0" d="M623.43,537.6c-0.04,1.08-1.73,1.71-2.03,1.81c-0.3,0.1-1.12,0.38-2.06,0.21"/>
<path class="st0" d="M533.85,607.52c-1.73,0.25-3.99-0.43-5.72-1.97c-0.54-0.49-1.7-1.52-2-3.03"/>
<path class="st0" d="M501.62,559.78c-0.37-1,1.02-1.94,1.27-2.1c0.25-0.16,0.94-0.59,1.92-0.64"/>
</svg>
