<?xml version="1.0" encoding="utf-8"?>
<!-- Generator: Adobe Illustrator 23.0.0, SVG Export Plug-In . SVG Version: 6.00 Build 0)  -->
<svg version="1.1" id="Layer_1" xmlns="http://www.w3.org/2000/svg" xmlns:xlink="http://www.w3.org/1999/xlink" x="0px" y="0px"
	 viewBox="0 0 800 800" style="enable-background:new 0 0 800 800;" xml:space="preserve">
<style type="text/css">
	.st0{fill:#1B1464;}
	.st1{fill:#FF3333;}
	.st2{opacity:0.7;fill:#FF3333;enable-background:new    ;}
	.st3{opacity:0.75;fill:#FF3333;enable-background:new    ;}
	.st4{fill:#592A0E;}
	.st5{opacity:0.2;fill:url(#SVGID_1_);enable-background:new    ;}
	.st6{fill:url(#SVGID_2_);}
	.st7{fill:url(#SVGID_3_);}
	.st8{fill:#FDCB95;}
	.st9{fill:#E2A66A;}
	.st10{fill:url(#SVGID_4_);}
	.st11{fill:url(#SVGID_5_);}
	.st12{fill:url(#SVGID_6_);}
	.st13{fill:url(#SVGID_7_);}
	.st14{fill:#F8CFAF;}
	.st15{fill:#FFF2E9;}
	.st16{fill:url(#SVGID_8_);}
	.st17{fill:#673D17;}
	.st18{fill:#F3EDCD;}
	.st19{fill:#F6BB81;}
	.st20{fill:url(#SVGID_9_);}
	.st21{fill:#F9EFE5;}
	.st22{fill:#F4B283;}
	.st23{clip-path:url(#SVGID_11_);}
	.st24{fill:url(#SVGID_12_);}
	.st25{fill:url(#SVGID_13_);}
	.st26{fill:#1F1A26;}
	.st27{fill:url(#SVGID_14_);}
	.st28{fill:#553110;}
	.st29{fill:#B93B4A;}
	.st30{fill:#FFFFFF;}
	.st31{fill:#F38583;}
	.st32{fill:#F0AAA6;}
	.st33{fill:#ECB782;}
	.st34{fill:#E5AB70;}
	.st35{fill:url(#SVGID_15_);}
	.st36{fill:#D682AC;}
	.st37{fill:#AA6385;}
	.st38{fill:#E6E7E8;}
	.st39{fill:#BBBDBF;}
	.st40{fill:#D0D2D3;}
	.st41{fill:#F1F1F2;}
	.st42{fill:#DFA877;}
	.st43{fill:url(#SVGID_16_);}
	.st44{fill:#81431D;}
	.st45{opacity:0.4;fill:#592A0E;enable-background:new    ;}
	.st46{fill:#B06F29;}
	.st47{fill:url(#SVGID_17_);}
	.st48{fill:url(#SVGID_18_);}
</style>
<path class="st0" d="M463.5,447.2c-98.1-32.8-220,21.2-241.3,31c-21.1,9.8-77.7,36.8-100.2,83.7c-0.1,0.3-0.3,0.7-0.6,1.3
	c-10.5,22.4-12.6,55.8,5.8,73.8c23.9,23.3,64.7,3.7,101.6,28.7c19,12.9,33.5,35.3,27,55.1c-11.6,35.3-86.3,47-81.2,56.1
	c5.6,9.9,60.4,6.8,103.6-0.9c101.2-18.1,202-72.8,247.2-146.3c14.2-23.1,44.6-72.5,13.9-123.4C533,495.5,514,464.1,463.5,447.2z"/>
<ellipse class="st1" cx="392.8" cy="419.5" rx="174.3" ry="168.2"/>
<g>
	<polygon class="st2" points="675,632.8 615.2,632.8 615.2,679.9 675,679.9 663.4,656.4 	"/>
	<polygon class="st2" points="118,632.8 177.8,632.8 177.8,679.9 118,679.9 129.6,656.4 	"/>
	<rect x="166" y="618.1" class="st1" width="461.1" height="52"/>
	<polygon class="st3" points="166,670.2 177.8,679.9 177.8,670.2 	"/>
	<polygon class="st3" points="627,670.2 615.2,679.9 615.2,670.2 	"/>
</g>
<ellipse class="st1" cx="171.7" cy="315.1" rx="52.2" ry="50.4"/>
<ellipse class="st1" cx="220.3" cy="182.3" rx="52.2" ry="50.4"/>
<ellipse class="st1" cx="575.3" cy="174.5" rx="52.2" ry="50.4"/>
<ellipse class="st1" cx="614.8" cy="314.4" rx="52.2" ry="50.4"/>
<g>
	<g>
		<path class="st4" d="M297.7,236.3c0,0,1.4-43.8,78-68.8c54.1-17.6,130.4,5,134.3,88.4c2.4,51.6-14.9,80.3-24.2,120.8
			c-4.6,19.6-1.8,42.3,7.4,55.3c0,0,10.9,14.3,22.6,7.5c0,0-10.2,16-43.8,12.7c0,0-16.4-2.6-30.2-8.9c-31-14-69.2-11.4-51.3,4.2
			c0,0-31.9-2.8-52.8,9.4c-9.7,5.6-35.1-1-35.1-1s9.4-4.2,13.3-9.1c1.5-2,5-5.1,5-5.1s-0.9,5-14.3,6.2s-22.4-9.4-22.4-9.4
			s12.2,13.7,29.6-21c4.3-8.8,4.8-17.2-0.5-36.1c-6.4-22.7-24.6-35.9-28.4-74.5C281.9,277.4,286.3,269.2,297.7,236.3z"/>
		
			<linearGradient id="SVGID_1_" gradientUnits="userSpaceOnUse" x1="287.8294" y1="667.1998" x2="350.2303" y2="667.1998" gradientTransform="matrix(1 0 0 1 0 -280)">
			<stop  offset="0" style="stop-color:#A85E20"/>
			<stop  offset="0.9483" style="stop-color:#592A0E"/>
		</linearGradient>
		<path class="st5" d="M342.2,342c0,0-8.3-20.7-28.7-5.2c0,0,17.6,49.2,12.5,69.3c-2.9,11-18.3,38.4-38.1,35.6
			c0,0,26.1,10.2,47.9-20C346.5,406.8,358.6,360,342.2,342z"/>
	</g>
	
		<linearGradient id="SVGID_2_" gradientUnits="userSpaceOnUse" x1="402.9205" y1="429.9389" x2="397.185" y2="697.5908" gradientTransform="matrix(1 0 0 1 0 -280)">
		<stop  offset="0.4137" style="stop-color:#3E1C13"/>
		<stop  offset="1" style="stop-color:#592A0E"/>
	</linearGradient>
	<path class="st6" d="M493.4,281c0,0-71,125.7,1.2,156.9c0,0-60.6-3.8-73.6-28.6l1.4,38.6H317.9c0,0,64.5-24.9-2.6-105.8
		c0,0-62-146.9,78.7-165.5C463.1,167.2,517.9,218.7,493.4,281z"/>
</g>
<g>
	
		<radialGradient id="SVGID_3_" cx="365.583" cy="772.6432" r="44.4444" gradientTransform="matrix(1.0419 0 0 1.005 13.5525 -419.0986)" gradientUnits="userSpaceOnUse">
		<stop  offset="0" style="stop-color:#F3AC88"/>
		<stop  offset="1" style="stop-color:#FDCB95"/>
	</radialGradient>
	<path class="st7" d="M354,543.4c-4.2,13.5-7.8,25.9-8.3,36.8c1.6-0.3,3.2-0.6,4.8-1c29.4-6.8,58.7-13.6,88.5-18.5
		c-7.3-14.7-18-28.1-20.8-37.1c-5.1-16.6,10-49.7,28.1-69.3c0,0,28.7-17.3,11.1-38.7c-4.9-6-17.5-3.7-30.5-11.9
		c-8.9-5.7-15.1-17.9-12-31C417.6,361,422,357,422,357l-35.1,10.3c0,0,12.2,17.4,3.4,31.7c-4.8,7.8-27.2,8.1-36.3,14.9
		c-10.8,8.1-10.4,22.3-4.9,39.4C357,478.1,368.8,495.6,354,543.4z"/>
</g>
<g>
	<g>
		<path class="st8" d="M462,290.9c0,0,21.5-32,31.2-9.5c0,0,6.6,25.8-28.5,33.7l-12-1.7L462,290.9z"/>
		<path class="st9" d="M481.7,286.4c0,0-14.9,7.8-14.3,17.7c0,0,10.2,0.4,11.8-5.5c0,0-1.6-5-3.5-4.6
			C475.7,294,484.7,285.7,481.7,286.4z"/>
	</g>
	<path class="st8" d="M461.1,333.7c-10.2,19.4-39.8,31.9-53.3,38.1c-14.2,7.9-27.9,10.4-36.9,6.5c-11-4.8-28.4-26.2-37-36.5
		c-5.4-6.5-14.8-19-14.6-32.6c0.2-15.8,4.1-17.4,3.7-26.1c-0.4-7.9-17.8-101.3,70.4-109.2c60,0.2,89.5,50.8,73.8,108.8
		C465.3,295.3,473.2,310.7,461.1,333.7z"/>
	
		<radialGradient id="SVGID_4_" cx="-188.4825" cy="733.5159" r="9.4146" gradientTransform="matrix(2.6652 0.1943 -0.2015 2.5707 1084.047 -1533.6772)" gradientUnits="userSpaceOnUse">
		<stop  offset="0" style="stop-color:#F3AC88"/>
		<stop  offset="1" style="stop-color:#FDCB95"/>
	</radialGradient>
	<path class="st10" d="M462.3,317.4c-1.1,13.5-14.6,23.4-30.3,22.3s-27.6-13-26.5-26.4c1.1-13.5,14.6-23.4,30.3-22.3
		C451.5,292.1,463.4,304,462.3,317.4z"/>
	
		<linearGradient id="SVGID_5_" gradientUnits="userSpaceOnUse" x1="329.6965" y1="504.7454" x2="363.7012" y2="456.9348" gradientTransform="matrix(0.9972 7.540000e-02 -7.540000e-02 0.9972 55.9592 -239.5106)">
		<stop  offset="0" style="stop-color:#FDCB95"/>
		<stop  offset="1" style="stop-color:#F19B82"/>
	</linearGradient>
	<path class="st11" d="M329.8,256.7c-1.6,0.8-3.3,2.6-4.3,7.5c-1.7,8.5,0.1,24,7.4,35.9c11.5,18.7,35.8,15.1,35.8,15.1
		s27.5-50.4-26.4-60.3C337.5,254.1,334.1,254.6,329.8,256.7z"/>
	
		<radialGradient id="SVGID_6_" cx="40.0759" cy="705.2419" r="10.0833" gradientTransform="matrix(1.5122 0.1103 -0.1287 1.6411 367.6228 -853.8178)" gradientUnits="userSpaceOnUse">
		<stop  offset="0" style="stop-color:#F3AC88"/>
		<stop  offset="1" style="stop-color:#FDCB95"/>
	</radialGradient>
	<path class="st12" d="M353.6,309.2c-0.7,8.6-8.4,15-17.3,14.4s-15.6-8.1-14.9-16.7s8.4-15,17.3-14.4S354.2,300.6,353.6,309.2z"/>
	
		<linearGradient id="SVGID_7_" gradientUnits="userSpaceOnUse" x1="355.9027" y1="540.3481" x2="359.836" y2="530.5431" gradientTransform="matrix(0.9972 7.540000e-02 -7.540000e-02 0.9972 55.9592 -239.5106)">
		<stop  offset="0" style="stop-color:#FDCB95"/>
		<stop  offset="0.1725" style="stop-color:#F5BA8D"/>
	</linearGradient>
	<path class="st13" d="M365.4,317.9c0,0,3.2,10.1,5.8,8.6c0,0,6.9,0.5,9.9-4.8l-9.8,0.6C371.3,322.4,367,321.6,365.4,317.9z"/>
	<path class="st14" d="M373.5,304.3c0,0-1.7,8.7-6.1,12.4c0,0-0.9,1.1-1.9,1.2c0,0-1-1.6,0-3.2C366.3,313.3,371.6,311.4,373.5,304.3
		z"/>
	<path class="st14" d="M449.8,306c-0.2,2.5-3,4.3-6.2,4c-3.2-0.2-5.7-2.4-5.5-4.9s3-4.3,6.2-4C447.5,301.3,450,303.5,449.8,306z"/>
	<path class="st14" d="M335.7,301c-0.2,2-2.2,3.4-4.7,3.2c-2.4-0.2-4.3-1.9-4.1-3.9c0.2-2,2.2-3.4,4.7-3.2
		C334,297.3,335.9,299.1,335.7,301z"/>
</g>
<g>
	<g>
		<path class="st15" d="M402.3,283.4c0,0,10.1-22.2,34-12.1c0,0,7.4,5.5,8.5,9.6c0,0-0.6,15.5-27,13.8
			C417.8,294.8,410.3,294,402.3,283.4z"/>
		<g>
			
				<linearGradient id="SVGID_8_" gradientUnits="userSpaceOnUse" x1="272.9707" y1="597.4482" x2="281.2203" y2="565.8246" gradientTransform="matrix(1.1856 1.090000e-02 -1.040000e-02 1.1235 103.1253 -373.8661)">
				<stop  offset="0.2997" style="stop-color:#E6AF22"/>
				<stop  offset="0.8242" style="stop-color:#BB7F2B"/>
			</linearGradient>
			<path class="st16" d="M440.1,282.6c-0.1,7.3-6.6,13.2-14.6,13.1s-14.4-6-14.3-13.4c0.1-7.3,6.6-13.2,14.6-13.1
				C433.7,269.3,440.2,275.3,440.1,282.6z"/>
			<path class="st17" d="M434.6,282.1c0,4.4-3.7,8-8.1,8s-8-3.7-8-8.1s3.7-8,8.1-8S434.6,277.7,434.6,282.1z"/>
			<path class="st18" d="M422.7,279.6c0,1.9-1.6,3.5-3.5,3.4c-1.9,0-3.5-1.6-3.5-3.5s1.6-3.5,3.5-3.4
				C421.2,276.1,422.7,277.7,422.7,279.6z"/>
		</g>
		<path class="st19" d="M401.1,284c0,0,6.5-21.3,25.3-23.7c0,0,18.2-1.4,19.4,17.3c0,0-8-11.8-24-7.3
			C405.7,274.8,401.1,284,401.1,284z"/>
		
			<linearGradient id="SVGID_9_" gradientUnits="userSpaceOnUse" x1="293.5155" y1="553.704" x2="341.8904" y2="553.704" gradientTransform="matrix(1.1244 6.000000e-03 -5.400000e-03 1 74.1105 -280.6115)">
			<stop  offset="0.3642" style="stop-color:#3B2314"/>
			<stop  offset="0.7655" style="stop-color:#050000"/>
		</linearGradient>
		<path class="st20" d="M401.1,284c0,0,23.6-25.7,43.7-3c0,0,5.1,0.5,10.7-9c0,0-2.8,4.9-10.8,3.4c0,0-9.9-13.7-26.3-8.3
			C412.7,269.5,404.5,277.6,401.1,284z"/>
		<path class="st19" d="M445.4,280.9c0,0-8.1,21-30.1,13.6C415.3,294.5,440.6,305.9,445.4,280.9z"/>
	</g>
	<g>
		<path class="st21" d="M369.7,284.6c0,0-9.4-19.5-28.5-13.1c0,0-6.1,3.8-7.2,7c0,0-0.8,12.3,19.5,12.8
			C353.5,291.4,366.7,290.6,369.7,284.6z"/>
		<path class="st22" d="M368.4,282.3c0,0-1.6-19.6-18.7-20.8c0,0-16.4-0.1-19.3,13.6c0,0,10.2-8.1,22-3.4
			C364.3,276.4,368.4,282.3,368.4,282.3z"/>
		<g>
			<g>
				<g>
					<defs>
						<path id="SVGID_10_" d="M369.3,284.1c0,0-8.9-19.3-31.1-12c0,0-2.8,3.4-3.9,6.6c0,0-0.3,12.9,19.5,12.8
							C353.8,291.5,366.3,290.1,369.3,284.1z"/>
					</defs>
					<clipPath id="SVGID_11_">
						<use xlink:href="#SVGID_10_"  style="overflow:visible;"/>
					</clipPath>
					<g class="st23">
						
							<linearGradient id="SVGID_12_" gradientUnits="userSpaceOnUse" x1="-1682.0582" y1="456.0572" x2="-1673.821" y2="424.4814" gradientTransform="matrix(-0.8579 -7.850000e-02 -7.900000e-02 0.8637 -1049.2557 -230.3221)">
							<stop  offset="0.2997" style="stop-color:#E6AF22"/>
							<stop  offset="0.8242" style="stop-color:#BB7F2B"/>
						</linearGradient>
						<path class="st24" d="M345,280.6c-0.5,5.6,3.7,10.6,9.5,11.1s10.9-3.6,11.4-9.2s-3.7-10.6-9.5-11.1
							C350.6,270.8,345.5,275,345,280.6z"/>
						<path class="st17" d="M349.3,281.2c-0.3,3.4,2.3,6.5,5.8,6.8s6.6-2.2,7-5.6c0.3-3.4-2.3-6.5-5.8-6.8
							C352.8,275.2,349.7,277.7,349.3,281.2z"/>
						<path class="st18" d="M348.2,278.4c-0.1,1.5,1,2.8,2.5,2.9s2.9-1,3-2.4s-1-2.8-2.5-2.9C349.6,275.9,348.3,276.9,348.2,278.4z"
							/>
					</g>
				</g>
			</g>
		</g>
		
			<linearGradient id="SVGID_13_" gradientUnits="userSpaceOnUse" x1="-1692.8767" y1="402.2923" x2="-1635.5929" y2="402.2923" gradientTransform="matrix(-0.8579 -7.830000e-02 -7.250000e-02 0.7918 -1053.5494 -175.5685)">
			<stop  offset="0.3642" style="stop-color:#3B2314"/>
			<stop  offset="0.7655" style="stop-color:#050000"/>
		</linearGradient>
		<path class="st25" d="M368.9,283.2c0,0-11.8-23.3-35.7-3.9c0,0-9.7,0-12.6-9.8c0,0,3,5.2,10.4,3.7c0,0,12.7-11.6,25.3-5.5
			C365.6,271.9,368.3,281.4,368.9,283.2z"/>
		<path class="st22" d="M334.8,282.7c0,0,4,10.9,22.3,8.3C357,290.9,336.2,298.9,334.8,282.7z"/>
	</g>
</g>
<path class="st26" d="M469.2,419.6"/>
<linearGradient id="SVGID_14_" gradientUnits="userSpaceOnUse" x1="368.2421" y1="578.7152" x2="372.5438" y2="567.9919" gradientTransform="matrix(0.9972 7.540000e-02 -7.540000e-02 0.9972 55.9592 -239.5106)">
	<stop  offset="0" style="stop-color:#FDCB95"/>
	<stop  offset="0.1725" style="stop-color:#F5BA8D"/>
</linearGradient>
<path class="st27" d="M372.5,362.2c0,0,13.5,1,18.2-2.1C390.6,360.1,383,368.6,372.5,362.2z"/>
<g>
	<path class="st28" d="M412.7,258.6c6.4-3.7,30-22,39.7,5.9C452.4,264.4,440.4,242.7,412.7,258.6z"/>
	<path class="st28" d="M367.6,267c0,0-21.1-24.5-40.5-8.5C327.1,258.5,346.6,249.8,367.6,267z"/>
</g>
<g>
	<g>
		<path class="st29" d="M359.8,329.3c0,0,14.8,9,48.8,4.1c0,0-9.1,15.6-23.8,19.7c0,0-18,1.2-20.2-9l-0.2-5.4
			C364.4,338.8,360,330.4,359.8,329.3z"/>
		<path class="st30" d="M364.3,331.7c0,0-2.8,9.1,10.3,10.9c4.3,0.6,11.6-0.1,15-0.7c8-1.4,14.1-3.8,19.1-8.5
			C408.6,333.5,384.2,340.5,364.3,331.7z"/>
		<path class="st30" d="M372.1,340.8c0,0-8.6,2.9-3.5,6.5c3.7,2.6,22.6,6.1,36.3-8.3c0,0-18.9,13.8-33.8,6.3
			C371.2,345.3,370,343.6,372.1,340.8z"/>
		<path class="st31" d="M358.3,328.5c0,0,16.8,8.8,50.3,4.9c0,0-11.2,6.6-33.7,4.3C374.9,337.8,360.1,335.8,358.3,328.5z"/>
		<path class="st31" d="M364.5,341.4c0,0,1.8,5.8,11.2,6.6c0,0,22,1,32.9-14.4c0,0-11.4,25.5-36,20.1
			C372.5,353.7,362.1,351.5,364.5,341.4z"/>
	</g>
	<path class="st32" d="M383.3,351.3c-0.1,0.8-0.7,1.3-1.4,1.3c-0.7,0-1.2-0.7-1.2-1.5c0.1-0.8,0.7-1.3,1.4-1.3
		C382.9,349.8,383.4,350.5,383.3,351.3z"/>
	<path class="st32" d="M387.2,351.2c0,0.5-0.5,0.9-0.9,0.8c-0.5,0-0.8-0.5-0.8-1s0.5-0.9,0.9-0.8
		C386.9,350.3,387.2,350.8,387.2,351.2z"/>
</g>
<g>
	<path class="st8" d="M264.1,389.9c0,0-3.5,3.1,0.6,7.7c4.2,4.6,7.7,10.5,7.7,10.5s-11.8,2.8-22.1-0.9c-10.2-3.7-14.7-6.2-20.5-6.2
		c0,0-7.7-6.2-10.9-2.5l1.3,3.1c0,0-1.3,0.9,3.2,5.2c4.5,4.3,7.7,7.1,7.7,7.1l11.2,5.6l-7.4-0.9c0,0-7.7-5.9-10.9-2.8
		c0,0,5.4,6.2,9.9,8s21.1,3.4,21.1,3.4s21.1,3.4,22.4,8.6s22.1,64.2,32.6,80.9c10.6,16.7,28.8-13,34.2-34.9c0,0,17.1-45.8,17.5-46.6
		c9.3-19.2,0-37.5-20.8-14.7c-3.3,3.6-6.6,14.7-6.6,14.7L322,481.3l-31.8-54.7l-2.6-10.5c0,0,1-4.6-6.4-11.1
		C274.1,398.5,264.1,389.9,264.1,389.9z"/>
	<path class="st33" d="M242.4,419.5c0,0,4.5,1.3,11.9,0.9c4.5-0.3,13.3-2.5,19.3,0.1c0,0-6.2-3.9-15.8-1.4
		C248.7,421.4,242.4,419.5,242.4,419.5z"/>
	<path class="st33" d="M220.3,401.6c0,0,1.4-0.8,4.7,1.4c3.2,2.2,7.1,5.6,7.1,5.6s8,3.1,12.2,5.1l5.9,2.3l-2.5-1.6l-2.8-1.2
		c0,0-9.1-4.3-12.6-4.8C232.2,408.3,224.1,399.5,220.3,401.6z"/>
	<path class="st33" d="M229.9,401l5.8,4.2l12.5,5.6l3.3,0.6l-15.5-6.7C235.9,404.8,232.2,402.2,229.9,401z"/>
</g>
<g>
	<path class="st8" d="M437.9,409.1c0,0,21.1-4.8,30.6,19.1c9.4,23.9,23.8,63.7,23.8,63.7s15.8,29.7-7.7,30.9c0,0-7.2,2.5-14.7-16.5
		s-33.4-70.6-33.4-70.6S422.6,419.8,437.9,409.1z"/>
	<path class="st34" d="M540.1,401.7c0,0-23.2-3.1-27.4,0.5c0,0-8.6,5.7-5.2,10.4c3.4,4.7,17.2-2.6,17.2-2.6S549.4,406.6,540.1,401.7
		z"/>
	
		<radialGradient id="SVGID_15_" cx="984.3535" cy="1055.6715" r="58.2567" gradientTransform="matrix(0.6189 -4.955294e-02 4.550598e-02 0.5296 -189.5605 -32.4953)" gradientUnits="userSpaceOnUse">
		<stop  offset="0" style="stop-color:#F9D896"/>
		<stop  offset="1" style="stop-color:#FDCB95"/>
	</radialGradient>
	<path class="st35" d="M484,523.5c0,0,19-2.2,21.5-25.1s8.1-77.1,8.1-77.1s0.4-12-10.1-6.1c0,0-16.2,51.8-19.6,63.5
		C480.4,490.4,475.6,512.2,484,523.5z"/>
	<path class="st8" d="M502.1,420.1c0,0,0.7-17.6,17.8-15.6l12.5-0.1c0,0,1.3-2.9,0.9-4c0,0-4.1,3-6,3.4c-3.8,0.6-7.5-2.8,7.5-10.6
		c0,0,5.2-1.7,7,0.6c2.8,3.3,3.7,7.8,3.7,7.8s4.2-1.1,5.3-8c0,0,0.9-3.6,1.4-7.1c0.6-4.3,3.9-4.9,4.6-2.9
		c6.1,17.5-7.2,24.6-12.5,27.2s-12.7,2.6-20.3,4.2s-10.6,6.3-10.6,6.3S502.5,428.9,502.1,420.1z"/>
	<path class="st33" d="M532.5,394.5c0,0,7.4-4,9.3-0.6c2,3.4,3.2,8,3.2,8s-1,4.7-2.5,6.2c0,0,5-3.6,2.5-9.8
		C542.6,392.1,539.6,389.4,532.5,394.5z"/>
	<path class="st33" d="M526.5,398.7c0,0,9.2-5.5,10.9-2.1s1.2,7.5,1.2,7.5s2.6-8-2.2-9.5C536.4,394.6,529.8,395.1,526.5,398.7z"/>
</g>
<g>
	<g>
		<path class="st0" d="M426.7,401.1c0,0-4.4,34.1-25.4,35.3s-19.9-34.6-19.9-34.6c-31,9.6-38.2,8.3-41,14.5
			c-7.2,16.3-19.3,63.6-19.3,63.6l16,25l14.2-39.9c0,0,16,29.8,3.7,63.1c-7.8,21-12.6,40.3-15.1,51.8c16.7,5.1,34.4,7.9,52.8,7.9
			c20.5,0,40.2-3.4,58.5-9.7c-6.2-14.1-16.2-25.5-29.5-49.9c-13.6-25,23.4-69,23.4-69l27.8,54.2c0,0-0.1-7.3,5.2-21.7
			c4.3-11.6,7.2-19.2,7.2-19.2s-10.3-28.9-16.8-55.2C467.3,411.6,426.7,401.1,426.7,401.1z"/>
		<path class="st36" d="M382.4,420.2c0,0-0.4,10.8,3.6,21c3.2,8.3,6.2,18.5,6.2,18.5l18.7-17.9c0,0,6.5-7.1,7.6-13.2
			c1.5-7.8,3.7-17.3,3.7-17.3l-11.3-2.2l-12.3,23.4l-3.3-23.7l-10.4,0.8L382.4,420.2z"/>
		<path class="st36" d="M393.4,385.4l0.1,1.8c0,0-9.5,5.6-10.7,8.7c-1.4,3.7,5.6,8.5,14.1,14.7l-15.5,26.1l-6.5-33.5
			c0,0,5-8.1,7.5-10.5C384.8,390.3,393.4,385.4,393.4,385.4z"/>
		<path class="st36" d="M414.7,385.9l0.3,1.7c0,0,8.8,3.8,12.3,7.1c0.5,0.5,2.1,2,1.8,2.7c-2.1,6.2-17.8,14.5-17.8,14.5l10.6,23.3
			L435,405c0,0-0.9-6.6-6.6-11.3C426,391.7,424.2,390.2,414.7,385.9z"/>
		<polygon class="st37" points="396.7,410.6 383.9,432.2 384.5,434.9 397.4,419.5 		"/>
		<polygon class="st37" points="411.9,410.9 408.2,417.7 419.5,429.9 419.8,428 		"/>
		<path class="st38" d="M357.6,520.7c0,0,9.7,6.2,29,5.4c23.8-1,32.6-6.2,32.6-6.2l0.8,4.2c0,0-18.7,7.9-43.6,5.7
			c-14.6-1.3-20.4-4-20.4-4L357.6,520.7z"/>
		<path class="st37" d="M407.7,430.3c0,1.2-0.9,2.2-2,2.2s-2-1-2-2.2s0.9-2.2,2-2.2S407.7,429.1,407.7,430.3z"/>
	</g>
	<path class="st36" d="M479.3,488.5c0,0-8.7,26.4,0.9,32.6c5.6,3.6,19.5-1,24.9-18.7l-4.6,17.8c0,0-18.5,7.1-25.9,0.9
		C467.3,514.9,460.4,505.1,479.3,488.5z"/>
	<path class="st36" d="M321.2,479.9c0,0,9.5,33.7-0.6,39.9c0,0-10.2-0.9-13.9-9.8c0,0,6.5,22.3,23.1,7.1c0,0,13-6.2,5.6-20.5
		C335.4,496.6,321.9,474.8,321.2,479.9z"/>
	<g>
		<polygon class="st39" points="379.5,525.3 389.8,525.7 390,530.9 378.9,530.6 		"/>
		<polygon class="st40" points="380.2,525.8 379.6,530.4 382.5,530.4 382.8,526 		"/>
		<polygon class="st40" points="383.8,526.1 383.3,530.5 389.3,530.7 389.2,526.1 		"/>
		<polygon class="st41" points="383.8,526.1 387.2,526.2 386,530.6 383.3,530.5 		"/>
		<polygon class="st41" points="381.7,525.9 380.9,530.4 379.6,530.4 380.2,525.8 		"/>
	</g>
	<path class="st37" d="M393.4,387.2c0,0,0.5,12.6-7.1,15.3c0,0-5.4-4.2-3.3-7.4C385.2,392,392.9,387.5,393.4,387.2z"/>
	<path class="st37" d="M415,387.6c0,0,9.8,3.8,13.1,8.1c0,0,1.6,1.1,0.7,2.5s-1.2,2.2-3.6,4.4C425.2,402.6,419.1,399.8,415,387.6z"
		/>
</g>
<g>
	<path class="st42" d="M321.8,246.8c0,0,1.8,0.8,39.2-5.2c51.7-8.4,74-34.6,74-34.6s3.2,46,43.3,52.3l-31.7-74H425l-104.3,53.5
		L321.8,246.8z"/>
	
		<linearGradient id="SVGID_16_" gradientUnits="userSpaceOnUse" x1="280.7211" y1="430.8863" x2="517.0938" y2="430.8863" gradientTransform="matrix(0.9689 7.400000e-02 -7.610000e-02 0.9971 43.6965 -240.2653)">
		<stop  offset="0.4239" style="stop-color:#A85E20"/>
		<stop  offset="0.94" style="stop-color:#592A0E"/>
	</linearGradient>
	<path class="st43" d="M311.9,246.7c0,0-28.2,5.6-26.7,41.1c0,0-7.3-22.3-5.2-39c1.4-12,1.6-26.6,17.8-48.7
		c17.4-23.8,33.3-34.1,54.6-48.1c28.6-18.7,95.1-32,110.8,2.6c0,0,14.1,1.1,34,32c17.3,27,16.9,72.2,5.6,82.1c0,0,4.8,23.8-4.4,45.6
		c0,0,8.7-19.4-8.1-41.3l-5.8-17.6L462.9,233c0,0-4.8-5.3-9.4-12.5c0,0-17.2-9.6-15.7-28.4c0,0-6.2,12.6-29.5,25
		C385.5,229.1,391.9,227.4,311.9,246.7z"/>
	<path class="st44" d="M437.7,192c0,0-17.6,28-110.8,40.4c-58,7.7-42.2,54.3-41.8,54.7c0,0-1-30.7,29.6-38.5
		C342.6,241.5,419.6,224.3,437.7,192z"/>
	<path class="st4" d="M437.6,195.6c0,0,1,41.3,31.6,62.8c11.3,7.9,23.4,13.5,24.1,20.5c0,0,3.9-18.9-26.8-44.7
		c0,0-22-20.1-28.7-41.9L437.6,195.6z"/>
	<path class="st45" d="M461.5,159.8c0,0-2.9-13.6-25.1-16.1c0,0,20.8,5.8,19.8,17.6c0,0-11.8-7.1-18.2,1.2c0,0,28.2-7.2,30.6,19.8
		c0,0,1.6-10.6-5.6-16.8c0,0,8.8-5,18.4,5.1C481.3,170.6,473.8,159.4,461.5,159.8z"/>
	<path class="st46" d="M332.9,208.9c0,0-51.3,0.1-53.2,47.8C279.7,256.8,293.6,223.5,332.9,208.9z"/>
	
		<linearGradient id="SVGID_17_" gradientUnits="userSpaceOnUse" x1="462.979" y1="483.6263" x2="396.2561" y2="467.9018" gradientTransform="matrix(1 0 0 1 0 -280)">
		<stop  offset="0.4137" style="stop-color:#935423"/>
		<stop  offset="1" style="stop-color:#B26628"/>
	</linearGradient>
	<path class="st47" d="M364.6,145.7c0,0,26.4,43.7,72.5,46.5c0,0-8.3,8.7-19.3,15.1c-8.6,5-20.4,7.8-21.1,8.2c0,0-74.7,3-86.7-28.1
		l13.9-12.7C323.9,174.6,352.1,150.7,364.6,145.7z"/>
	
		<linearGradient id="SVGID_18_" gradientUnits="userSpaceOnUse" x1="437.6" y1="495.187" x2="510.5" y2="495.187" gradientTransform="matrix(1 0 0 1 0 -280)">
		<stop  offset="0.4137" style="stop-color:#844D20"/>
		<stop  offset="1" style="stop-color:#663617"/>
	</linearGradient>
	<path class="st48" d="M437.6,192.2c0,0,37.8,11.2,61.8-1c0,0,10.9,20.4,11.1,47.9c0,0-7.1,1.7-35.3-11.2
		C475.2,227.8,450.7,214.9,437.6,192.2z"/>
</g>
<g>
	<g>
		<g>
			<path class="st30" d="M200.2,332.2l-8.4-8.1c-1.7-1.6-4.5-1.6-6.2,0.1l-4.2,4.1c-0.3-0.1-0.5-0.3-0.8-0.5
				c-2.7-1.4-6.3-3.4-10.2-7.1s-5.9-7.3-7.4-9.8c-0.2-0.3-0.3-0.5-0.5-0.8l2.8-2.7l1.4-1.3c1.7-1.7,1.8-4.3,0.1-6l-8.4-8.1
				c-1.7-1.6-4.4-1.6-6.2,0.1l-2.4,2.3l0.1,0.1c-0.8,1-1.5,2.1-2,3.3c-0.5,1.2-0.7,2.3-0.9,3.4c-1.1,8.9,3.1,17,14.5,28
				c15.8,15.2,28.5,14.1,29,14c1.2-0.1,2.3-0.4,3.5-0.8c1.2-0.5,2.4-1.1,3.4-1.9l0,0l2.4-2.3C201.8,336.5,201.8,333.8,200.2,332.2z"
				/>
		</g>
	</g>
</g>
<g>
	<path class="st30" d="M242.4,204.7c1.3,0,2.4-0.4,3.3-1.2l-15.9-15.3c-0.4,0.3-0.7,0.5-1.1,0.8c-1.2,0.8-2.2,1.5-2.9,2
		s-1.7,1-3,1.4c-1.2,0.5-2.4,0.7-3.4,0.7l0,0l0,0c-1.1,0-2.2-0.2-3.4-0.7s-2.2-1-3-1.4c-0.7-0.5-1.7-1.1-2.9-2
		c-0.3-0.2-0.7-0.5-1.1-0.8l-16,15.4c0.9,0.8,2,1.2,3.3,1.2C196.3,204.7,242.4,204.7,242.4,204.7z"/>
	<path class="st30" d="M195.1,178.6c-1.2-0.8-2.2-1.6-3.2-2.6v23.3l14-13.5C203.1,183.9,199.5,181.5,195.1,178.6z"/>
	<path class="st30" d="M243.6,178.6c-4.3,2.8-7.9,5.2-10.9,7.2l14,13.5V176C245.8,176.9,244.8,177.8,243.6,178.6z"/>
	<path class="st30" d="M242.4,162.9h-46.1c-1.6,0-2.8,0.5-3.7,1.6c-0.9,1-1.3,2.4-1.3,3.9c0,1.3,0.6,2.6,1.7,4.1
		c1.1,1.5,2.4,2.6,3.7,3.5c0.7,0.5,2.9,1.9,6.4,4.3c1.9,1.3,3.6,2.4,5,3.4c1.2,0.8,2.3,1.5,3.2,2.1c0.1,0.1,0.3,0.2,0.5,0.3
		c0.2,0.2,0.5,0.4,0.9,0.6c0.7,0.5,1.2,0.9,1.7,1.2s1,0.6,1.6,1s1.2,0.6,1.8,0.8s1.1,0.3,1.6,0.3l0,0l0,0c0.5,0,1-0.1,1.6-0.3
		s1.2-0.5,1.8-0.8c0.6-0.4,1.2-0.7,1.6-1c0.5-0.3,1-0.7,1.7-1.2c0.4-0.2,0.6-0.4,0.9-0.6c0.2-0.1,0.4-0.3,0.5-0.3
		c0.7-0.5,1.7-1.2,3.2-2.1c2.6-1.7,6.4-4.3,11.5-7.7c1.5-1,2.8-2.3,3.8-3.7s1.5-3,1.5-4.6c0-1.3-0.5-2.5-1.5-3.4
		C244.9,163.3,243.7,162.9,242.4,162.9z"/>
</g>
<path class="st30" d="M614.8,284.8c-17.6,0-31.8,13.7-31.8,30.7s14.2,30.7,31.8,30.7s31.8-13.7,31.8-30.7S632.3,284.8,614.8,284.8z
	 M615.8,340.5c-0.4,0.3-0.7,0.4-1,0.4s-0.6-0.1-1-0.4c-4.5-3.9-7.8-8.8-9.6-14.3c7-1.7,14.3-1.7,21.3-0.1
	C623.6,331.7,620.3,336.6,615.8,340.5z M603,321.6c-0.4-2-0.6-4.1-0.6-6.2s0.2-4.2,0.6-6.2c3.9,1,8,1.5,12,1.5
	c3.9,0,7.9-0.5,11.7-1.4c0.4,2,0.6,4,0.6,6.1s-0.2,4.1-0.6,6.1C618.9,319.7,610.7,319.7,603,321.6z M613.8,290.3
	c0.4-0.3,0.7-0.4,1-0.4s0.6,0.1,1,0.4c4.5,3.9,7.8,8.9,9.7,14.4c-7,1.7-14.3,1.7-21.3-0.1C606,299.2,609.3,294.2,613.8,290.3z
	 M631.4,308c2.7-0.9,5.3-2.1,7.8-3.5c1.6,3.3,2.5,7.1,2.5,11s-0.9,7.6-2.5,11c-2.5-1.4-5.1-2.6-7.8-3.5c0.5-2.4,0.8-4.9,0.8-7.5
	C632.1,312.9,631.8,310.4,631.4,308z M636.7,300.4c-2.1,1.2-4.3,2.2-6.5,3c-1.6-4.6-4-8.9-7.2-12.7
	C628.5,292.4,633.3,295.9,636.7,300.4z M606.7,290.7c-3.2,3.7-5.6,7.9-7.2,12.5c-2.2-0.8-4.4-1.8-6.5-3
	C596.4,295.8,601.1,292.4,606.7,290.7z M590.5,304.3c2.5,1.4,5.1,2.6,7.8,3.5c-0.5,2.5-0.8,5-0.8,7.6s0.3,5.1,0.8,7.6
	c-2.7,0.9-5.3,2.1-7.8,3.5c-1.7-3.4-2.6-7.1-2.6-11.1C587.9,311.5,588.8,307.7,590.5,304.3z M593,330.6c2.1-1.2,4.3-2.2,6.5-3
	c1.6,4.6,4,8.9,7.2,12.5C601.1,338.5,596.4,335.1,593,330.6z M622.9,340.2c3.2-3.7,5.7-8,7.2-12.7c2.2,0.8,4.4,1.8,6.5,3
	C633.3,335,628.5,338.5,622.9,340.2z"/>
<g>
	<g>
		<path class="st30" d="M314.9,638.5l-2.2,2.7c-1.6-1.7-4-2.8-6.2-2.8c-4.5,0-8,3.3-8,7.6s3.5,7.6,8,7.6c2.2,0,4.6-1,6.2-2.6
			l2.2,2.4c-2.3,2.2-5.5,3.6-8.7,3.6c-6.6,0-11.7-4.8-11.7-11c0-6.1,5.2-10.9,11.8-10.9C309.5,635.2,312.7,636.5,314.9,638.5z"/>
	</g>
	<g>
		<path class="st30" d="M340.2,646.1c0,6.2-5.2,11-11.9,11s-11.9-4.8-11.9-11s5.2-10.9,11.9-10.9C335,635.2,340.2,639.9,340.2,646.1
			z M320.2,646.1c0,4.3,3.7,7.7,8.1,7.7s8-3.4,8-7.7s-3.6-7.6-8-7.6C323.9,638.5,320.2,641.8,320.2,646.1z"/>
		<path class="st30" d="M359.9,656.9l-12-15.5v15.5h-3.8v-21.6h3.7l12,15.5v-15.5h3.7v21.6H359.9z"/>
	</g>
	<g>
		<path class="st30" d="M377.8,638.6V657H374v-18.4h-7.1v-3.3h18v3.3H377.8z"/>
	</g>
	<g>
		<path class="st30" d="M389.1,652l-2.1,4.9h-4l9.9-21.6h3.9l9.8,21.6h-4l-2.1-4.9H389.1z M394.7,639.2l-4.2,9.6h8.5L394.7,639.2z"
			/>
	</g>
	<g>
		<path class="st30" d="M427.4,638.5l-2.2,2.7c-1.6-1.7-4-2.8-6.2-2.8c-4.5,0-8,3.3-8,7.6s3.5,7.6,8,7.6c2.2,0,4.6-1,6.2-2.6
			l2.2,2.4c-2.3,2.2-5.5,3.6-8.7,3.6c-6.6,0-11.7-4.8-11.7-11c0-6.1,5.2-10.9,11.8-10.9C422.1,635.2,425.2,636.5,427.4,638.5z"/>
		<path class="st30" d="M439.5,638.6V657h-3.8v-18.4h-7.1v-3.3h18v3.3H439.5z"/>
		<path class="st30" d="M477.2,648c0,5.7-3.7,9.1-9.7,9.1s-9.8-3.5-9.8-9.1v-12.7h3.8V648c0,3.6,2.3,5.8,6,5.8s5.9-2.2,5.9-5.8
			v-12.7h3.8L477.2,648L477.2,648z"/>
		<path class="st30" d="M497.8,637.4l-1.6,3.2c-2.4-1.4-4.9-2-6.6-2c-2.2,0-3.7,0.8-3.7,2.3c0,4.7,12.1,2.2,12.1,10
			c0,3.9-3.5,6.2-8.5,6.2c-3.5,0-6.9-1.4-9.2-3.4l1.6-3.1c2.3,2,5.2,3.1,7.6,3.1c2.6,0,4.2-1,4.2-2.6c0-4.8-12.1-2.1-12.1-9.8
			c0-3.7,3.3-6,8.2-6C492.9,635.1,495.7,636,497.8,637.4z"/>
	</g>
</g>
<path class="st30" d="M590.4,148.6h-28.3c-1.9,0-3.5,1.5-3.5,3.3v46.8c0,1.8,1.6,3.3,3.5,3.3h28.3c1.9,0,3.5-1.5,3.5-3.3V152
	C593.8,150.1,592.3,148.6,590.4,148.6z M579.7,194.5c0,1.8-1.6,3.3-3.5,3.3l0,0c-1.9,0-3.5-1.5-3.5-3.3l0,0c0-1.8,1.6-3.3,3.5-3.3
	l0,0C578.1,191.1,579.7,192.6,579.7,194.5L579.7,194.5z M589.5,184c0,1.8-1.6,3.3-3.5,3.3h-19.6c-1.9,0-3.5-1.5-3.5-3.3v-28
	c0-1.8,1.6-3.3,3.5-3.3H586c1.9,0,3.5,1.5,3.5,3.3V184z"/>
</svg>
