<?xml version="1.0" encoding="utf-8"?>
<!-- Generator: Adobe Illustrator 23.0.0, SVG Export Plug-In . SVG Version: 6.00 Build 0)  -->
<svg version="1.1" id="Layer_1" xmlns="http://www.w3.org/2000/svg" xmlns:xlink="http://www.w3.org/1999/xlink" x="0px" y="0px"
	 viewBox="0 0 1000 150" style="enable-background:new 0 0 1000 150;" xml:space="preserve">
<style type="text/css">
	.st0{clip-path:url(#SVGID_2_);}
	.st1{clip-path:url(#SVGID_4_);fill:#FFFFFF;stroke:#000000;stroke-miterlimit:10;}
	.st2{clip-path:url(#SVGID_6_);fill:#1B1464;}
	.st3{clip-path:url(#SVGID_8_);fill:#FF3333;}
	.st4{clip-path:url(#SVGID_10_);fill:#FFFFFF;}
</style>
<g>
	<g>
		<defs>
			<rect id="SVGID_1_" x="-1" width="1003" height="150"/>
		</defs>
		<clipPath id="SVGID_2_">
			<use xlink:href="#SVGID_1_"  style="overflow:visible;"/>
		</clipPath>
		<g class="st0">
			<g>
				<defs>
					<rect id="SVGID_3_" x="-1" width="1003" height="150"/>
				</defs>
				<clipPath id="SVGID_4_">
					<use xlink:href="#SVGID_3_"  style="overflow:visible;"/>
				</clipPath>
				<path class="st1" d="M-1.5,150.3"/>
			</g>
			<g>
				<defs>
					<rect id="SVGID_5_" x="-1" width="1003" height="150"/>
				</defs>
				<clipPath id="SVGID_6_">
					<use xlink:href="#SVGID_5_"  style="overflow:visible;"/>
				</clipPath>
				<path class="st2" d="M1002,0.3c-83.7,52.6-163,69.1-215.7,75C567,100,404.5-11.1,136.4,13.5C73.7,19.3,25.7,30.6-1,37.8v126
					l809.4,33.5l253.8-35L1002,0.3z"/>
			</g>
			<g>
				<defs>
					<rect id="SVGID_7_" x="-1" width="1003" height="150"/>
				</defs>
				<clipPath id="SVGID_8_">
					<use xlink:href="#SVGID_7_"  style="overflow:visible;"/>
				</clipPath>
				<path class="st3" d="M1002-0.3c-15.9,10.1-42.7,26.1-78,41c0,0-72.8,30.9-155.7,40.2c-189,21.1-381.6-88.8-631.9-61
					C75.2,26.8,26.6,40.1-2,49c0.3,38.1,0.7,76.2,1,114.3l809.4,33.5l253.8-35L1002-0.3z"/>
			</g>
			<g>
				<defs>
					<rect id="SVGID_9_" x="-1" width="1003" height="150"/>
				</defs>
				<clipPath id="SVGID_10_">
					<use xlink:href="#SVGID_9_"  style="overflow:visible;"/>
				</clipPath>
				<path class="st4" d="M1002-0.3c-13.4,8.6-34.5,21.5-61.4,34.9c-10.1,5-26.3,12.5-46.7,20.3c0,0-74.7,28.3-158.7,34.1
					C559.1,101.2,334.7-15.6,98.3,39C50.3,50.1,13.6,65.5-5,74c1.3,29.8,2.7,59.5,4,89.3l809.4,33.5l253.8-35L1002-0.3z"/>
			</g>
		</g>
	</g>
</g>
</svg>
